# xmcd
#
# Track frame offsets: 
#        150
#        21737
#        47193
#        58504
#        79573
#        103629
#        117703
#        131039
#        143974
#        161981
#        176569
#        209990
#        227201
#        247491
#
# Disc length: 3476 seconds
#
# Revision: 0
# Processed by: cddbd v1.5.2PL0 Copyright (c) Steve Scherf et al.
# Submitted via: ExactAudioCopy v0.99pb5
#
DISCID=e40d920e
DTITLE=Blues Power Band - Shoot, Shoot, Don't Talk !
DYEAR=2006
DGENRE=Blues
TTITLE0=Shoot ! Shoot !
TTITLE1=www.bluespower-band.com (or Dial BEE-PEE-BEE)
TTITLE2=Reverse Side Blues
TTITLE3=Break In The Line
TTITLE4=The More I Think About It
TTITLE5=Askin' for more
TTITLE6=Dark side of the sun
TTITLE7=Apologies To Freddie And Billy
TTITLE8="B" Man
TTITLE9=Let's Rock ! (Tyson's fist in your face)
TTITLE10=Troublemaker
TTITLE11=What About BB ?
TTITLE12=A Woman Of Action
TTITLE13=Don't Talk !
EXTD=
EXTT0=
EXTT1=
EXTT2=
EXTT3=
EXTT4=
EXTT5=
EXTT6=
EXTT7=
EXTT8=
EXTT9=
EXTT10=
EXTT11=
EXTT12=
EXTT13=
PLAYORDER=
